<svg xmlns="http://www.w3.org/2000/svg" xmlns:xlink="http://www.w3.org/1999/xlink" width="500" zoomAndPan="magnify" viewBox="0 0 375 374.999991" height="500" preserveAspectRatio="xMidYMid meet" version="1.0"><defs><clipPath id="bad734eded"><path d="M 0.683594 19 L 356 19 L 356 375 L 0.683594 375 Z M 0.683594 19 " clip-rule="nonzero"/></clipPath></defs><path fill="#ffffff" d="M 96.613281 330.210938 L 65.949219 360.875 L 35.183594 338.09375 L 14.683594 309.609375 L 37.46875 286.828125 L 71.207031 302.6875 Z M 96.613281 330.210938 " fill-opacity="1" fill-rule="nonzero"/><path fill="#ffffff" d="M 142.1875 284.640625 L 119.398438 307.425781 L 87.003906 289.386719 L 60.25 264.042969 L 83.035156 241.257812 L 117.21875 258.339844 Z M 142.1875 284.640625 " fill-opacity="1" fill-rule="nonzero"/><path fill="#ffffff" d="M 185.570312 241.257812 L 164.972656 261.855469 L 130.511719 242.828125 L 105.820312 218.46875 L 134.300781 189.988281 L 163.488281 209.574219 Z M 185.570312 241.257812 " fill-opacity="1" fill-rule="nonzero"/><path fill="#ffffff" d="M 65.949219 360.875 L 26.074219 366.578125 L 8.980469 349.488281 L 14.683594 309.609375 Z M 65.949219 360.875 " fill-opacity="1" fill-rule="nonzero"/><path fill="#ffffff" d="M 311.824219 96.953125 C 364.632812 129.992188 356.941406 207.699219 302.652344 232.644531 C 288.484375 239.152344 248.226562 258.339844 248.226562 258.339844 L 231.140625 241.257812 L 178.316406 197.242188 L 134.300781 144.417969 L 117.21875 127.332031 C 117.21875 127.332031 136.476562 87.820312 142.109375 74.714844 C 166.394531 18.234375 246.988281 10.0625 279.777344 65.652344 L 290.953125 84.605469 C 310.808594 96.328125 310.164062 95.90625 311.824219 96.953125 Z M 311.824219 96.953125 " fill-opacity="1" fill-rule="nonzero"/><path fill="#000000" d="M 231.140625 241.257812 L 208.355469 264.042969 C 197.757812 253.445312 122.074219 177.761719 111.515625 167.203125 L 134.300781 144.417969 Z M 231.140625 241.257812 " fill-opacity="1" fill-rule="nonzero"/><path fill="#000000" d="M 164.972656 261.855469 L 142.1875 284.640625 L 83.035156 241.257812 L 105.820312 218.46875 Z M 164.972656 261.855469 " fill-opacity="1" fill-rule="nonzero"/><path fill="#000000" d="M 119.398438 307.425781 L 96.613281 330.210938 L 37.46875 286.828125 L 60.25 264.042969 Z M 119.398438 307.425781 " fill-opacity="1" fill-rule="nonzero"/><g clip-path="url(#bad734eded)"><path fill="#ffffff" d="M 316.085938 90.148438 C 314.332031 89.050781 314.882812 89.410156 296.816406 78.746094 L 286.6875 61.574219 C 250.460938 0.144531 161.542969 9.191406 134.742188 71.542969 C 129.242188 84.328125 110.191406 123.417969 110 123.8125 C 108.5 126.886719 109.117188 130.582031 111.539062 133.003906 L 122.953125 144.417969 L 105.84375 161.527344 C 102.710938 164.664062 102.710938 169.742188 105.84375 172.878906 L 122.953125 189.988281 L 9.175781 303.765625 C 7.949219 304.90625 7.101562 306.40625 6.78125 308.21875 C 6.699219 308.699219 2.398438 338.851562 1.039062 348.351562 C 0.679688 350.851562 1.523438 353.375 3.308594 355.160156 L 20.398438 372.25 C 22.207031 374.058594 24.742188 374.871094 27.207031 374.519531 C 37.296875 373.078125 66.800781 368.871094 67.335938 368.777344 C 69.15625 368.457031 70.667969 367.601562 71.804688 366.367188 L 185.570312 252.605469 L 202.679688 269.714844 C 205.8125 272.847656 210.894531 272.847656 214.03125 269.714844 L 231.140625 252.605469 L 242.554688 264.019531 C 244.945312 266.410156 248.597656 267.058594 251.683594 265.589844 C 252.085938 265.398438 292.050781 246.347656 306.003906 239.933594 C 366.046875 212.34375 374.34375 126.597656 316.085938 90.148438 Z M 141.378906 274.09375 L 95.324219 240.316406 L 106.628906 229.011719 L 152.683594 262.792969 Z M 118.59375 296.878906 L 72.539062 263.101562 L 83.84375 251.800781 L 129.898438 285.578125 Z M 95.808594 319.664062 L 49.753906 285.886719 L 61.058594 274.585938 L 107.113281 308.363281 Z M 38.273438 297.371094 L 84.328125 331.148438 L 65.949219 349.527344 L 26.03125 309.613281 Z M 28.910156 358.0625 L 17.496094 346.648438 L 20.355469 326.636719 L 48.921875 355.203125 Z M 164.167969 251.308594 L 118.109375 217.53125 L 134.304688 201.339844 L 174.21875 241.253906 Z M 208.355469 252.691406 C 197.539062 241.875 132.9375 177.273438 122.867188 167.203125 L 134.304688 155.765625 L 219.792969 241.253906 Z M 299.300781 225.347656 C 288.273438 230.417969 261.226562 243.269531 249.898438 248.660156 L 126.933594 125.695312 C 132.363281 114.5 145.007812 88.300781 149.488281 77.882812 C 171.1875 27.402344 243.417969 19.808594 272.863281 69.730469 L 284.039062 88.683594 C 284.730469 89.851562 285.703125 90.828125 286.875 91.515625 C 306.578125 103.152344 306.015625 102.78125 307.570312 103.753906 C 355.117188 133.503906 347.613281 203.148438 299.300781 225.347656 Z M 299.300781 225.347656 " fill-opacity="1" fill-rule="nonzero"/></g></svg>