<svg xmlns="http://www.w3.org/2000/svg" xmlns:xlink="http://www.w3.org/1999/xlink" width="500" zoomAndPan="magnify" viewBox="0 0 375 374.999991" height="500" preserveAspectRatio="xMidYMid meet" version="1.0"><defs><clipPath id="eaef0142cf"><path d="M 136 312 L 239 312 L 239 367.78125 L 136 367.78125 Z M 136 312 " clip-rule="nonzero"/></clipPath><clipPath id="51ef87148f"><path d="M 72.449219 7.03125 L 302.699219 7.03125 L 302.699219 168 L 72.449219 168 Z M 72.449219 7.03125 " clip-rule="nonzero"/></clipPath></defs><path fill="#ffffff" d="M 229.226562 321.699219 L 187.277344 358.507812 L 145.425781 321.699219 L 145.425781 190.652344 L 229.226562 190.652344 Z M 229.226562 321.699219 " fill-opacity="1" fill-rule="nonzero"/><path fill="#ffffff" d="M 126.136719 158.722656 L 248.523438 158.722656 L 248.523438 190.652344 L 126.136719 190.652344 Z M 126.136719 158.722656 " fill-opacity="1" fill-rule="nonzero"/><path fill="#000000" d="M 257.640625 199.777344 L 117.011719 199.777344 L 117.011719 149.601562 L 257.640625 149.601562 Z M 135.253906 181.539062 L 239.398438 181.539062 L 239.398438 167.84375 L 135.253906 167.84375 Z M 135.253906 181.539062 " fill-opacity="1" fill-rule="nonzero"/><g clip-path="url(#eaef0142cf)"><path fill="#000000" d="M 187.328125 367.621094 C 185.179688 367.621094 183.035156 366.878906 181.3125 365.363281 L 139.40625 328.558594 C 136.554688 326.054688 135.554688 322.039062 136.890625 318.484375 C 138.226562 314.929688 141.628906 312.582031 145.425781 312.582031 L 229.226562 312.582031 C 233.023438 312.582031 236.421875 314.929688 237.761719 318.484375 C 239.09375 322.039062 238.097656 326.046875 235.242188 328.558594 L 193.351562 365.363281 C 191.632812 366.878906 189.484375 367.621094 187.328125 367.621094 Z M 169.632812 330.824219 L 187.328125 346.367188 L 205.027344 330.824219 Z M 169.632812 330.824219 " fill-opacity="1" fill-rule="nonzero"/></g><path fill="#000000" d="M 238.347656 245.101562 L 136.308594 222.371094 L 136.308594 181.539062 L 238.347656 181.539062 Z M 154.542969 207.75 L 220.105469 222.355469 L 220.105469 199.777344 L 154.542969 199.777344 Z M 154.542969 207.75 " fill-opacity="1" fill-rule="nonzero"/><path fill="#000000" d="M 238.347656 293.765625 L 136.308594 271.019531 L 136.308594 238.644531 L 154.542969 238.644531 L 154.542969 256.402344 L 220.105469 271.015625 L 220.105469 257.324219 L 238.347656 257.324219 Z M 238.347656 293.765625 " fill-opacity="1" fill-rule="nonzero"/><path fill="#000000" d="M 238.347656 330.816406 L 136.308594 330.816406 L 136.308594 287.277344 L 154.542969 287.277344 L 154.542969 312.570312 L 220.105469 312.570312 L 220.105469 305.949219 L 238.347656 305.949219 Z M 238.347656 330.816406 " fill-opacity="1" fill-rule="nonzero"/><path fill="#ffffff" d="M 293.132812 65.398438 C 292.433594 46.554688 285.046875 35.675781 273.742188 27.875 C 262.367188 20.195312 246.300781 16.59375 230.351562 16.636719 C 215.585938 16.597656 201.019531 19.695312 191.210938 24.132812 L 187.273438 25.898438 L 183.34375 24.128906 C 175.449219 20.535156 164.445312 17.910156 152.789062 16.984375 L 132.632812 17.238281 C 120.746094 18.59375 109.414062 22.050781 100.785156 27.878906 C 89.476562 35.675781 82.09375 46.574219 81.414062 65.402344 C 81.414062 66.898438 81.265625 87.6875 98.375 125.671875 C 106.886719 144.550781 111.230469 158.726562 111.230469 158.726562 L 263.308594 158.726562 C 263.308594 158.726562 269.035156 141.144531 276.035156 125.984375 C 285.125 106.234375 291.949219 87.6875 293.222656 69.601562 C 293.3125 68.253906 293.160156 66.878906 293.132812 65.398438 Z M 293.132812 65.398438 " fill-opacity="1" fill-rule="nonzero"/><g clip-path="url(#51ef87148f)"><path fill="#000000" d="M 263.308594 167.84375 L 104.492188 167.84375 L 102.511719 161.394531 C 102.46875 161.257812 98.207031 147.480469 90.0625 129.417969 C 73.558594 92.78125 72.289062 71.175781 72.292969 65.425781 C 73.023438 45.039062 80.425781 30.835938 95.605469 20.371094 C 105.054688 13.984375 117.476562 9.785156 131.59375 8.171875 L 132.515625 8.113281 L 153.097656 7.851562 L 153.511719 7.882812 C 166.136719 8.886719 178.070312 11.714844 187.121094 15.832031 L 187.269531 15.902344 L 187.488281 15.808594 C 198.945312 10.609375 214.878906 7.511719 230.070312 7.511719 L 230.609375 7.511719 C 249.484375 7.511719 266.601562 12.058594 278.84375 20.308594 C 294.085938 30.828125 301.503906 45.03125 302.25 65.058594 C 302.257812 65.699219 302.28125 66.113281 302.304688 66.523438 C 302.363281 67.796875 302.398438 69.027344 302.316406 70.238281 C 300.816406 91.539062 292.375 112.292969 284.308594 129.792969 C 277.625 144.269531 272.035156 161.371094 271.980469 161.535156 L 269.933594 167.839844 L 263.308594 167.839844 Z M 117.796875 149.601562 L 256.792969 149.601562 C 259.132812 142.964844 263.152344 132.136719 267.75 122.160156 C 278.203125 99.480469 283.097656 83.5625 284.121094 68.957031 C 284.15625 68.453125 284.105469 67.9375 284.082031 67.414062 C 284.050781 66.792969 284.027344 66.164062 284.015625 65.519531 C 283.496094 51.570312 278.871094 42.488281 268.566406 35.382812 C 259.519531 29.285156 245.660156 25.753906 230.609375 25.753906 L 230.070312 25.753906 C 217.53125 25.753906 204.085938 28.316406 194.972656 32.441406 L 187.277344 35.886719 L 179.617188 32.460938 C 172.59375 29.265625 162.746094 26.960938 152.476562 26.101562 L 133.222656 26.347656 C 122.191406 27.660156 112.75 30.800781 105.886719 35.4375 C 95.652344 42.492188 91.039062 51.574219 90.527344 65.730469 C 90.53125 67.546875 90.96875 87.035156 106.6875 121.925781 C 111.964844 133.621094 115.664062 143.519531 117.796875 149.601562 Z M 117.796875 149.601562 " fill-opacity="1" fill-rule="nonzero"/></g><path fill="#000000" d="M 226.800781 55.824219 C 225.371094 55.824219 223.910156 55.484375 222.5625 54.769531 L 183.035156 33.964844 C 178.578125 31.625 176.867188 26.101562 179.210938 21.648438 C 181.558594 17.191406 187.066406 15.476562 191.527344 17.828125 L 231.054688 38.628906 C 235.515625 40.972656 237.230469 46.488281 234.878906 50.945312 C 233.242188 54.046875 230.074219 55.824219 226.800781 55.824219 Z M 226.800781 55.824219 " fill-opacity="1" fill-rule="nonzero"/><path fill="#000000" d="M 128.121094 201.808594 L 250.511719 229.078125 L 246.542969 246.882812 L 124.152344 219.613281 Z M 128.121094 201.808594 " fill-opacity="1" fill-rule="nonzero"/><path fill="#000000" d="M 128.117188 250.488281 L 250.503906 277.777344 L 246.53125 295.585938 L 124.148438 268.296875 Z M 128.117188 250.488281 " fill-opacity="1" fill-rule="nonzero"/><path fill="#ffffff" d="M 126.503906 98.296875 C 123.820312 98.296875 121.195312 96.960938 119.648438 94.527344 C 114.53125 86.472656 114.164062 75.367188 118.660156 64.835938 C 123.585938 53.304688 132.933594 45.136719 143.679688 42.984375 C 148.074219 42.089844 152.34375 44.945312 153.222656 49.335938 C 154.105469 53.726562 151.257812 58.003906 146.871094 58.882812 C 141.449219 59.964844 136.359375 64.683594 133.574219 71.199219 C 131.210938 76.730469 131.117188 82.34375 133.335938 85.84375 C 135.734375 89.621094 134.617188 94.632812 130.835938 97.03125 C 129.492188 97.886719 127.988281 98.296875 126.503906 98.296875 Z M 126.503906 98.296875 " fill-opacity="1" fill-rule="nonzero"/></svg>