<svg xmlns="http://www.w3.org/2000/svg" xmlns:xlink="http://www.w3.org/1999/xlink" width="500" zoomAndPan="magnify" viewBox="0 0 375 374.999991" height="500" preserveAspectRatio="xMidYMid meet" version="1.0"><defs><clipPath id="29e8c8cbb6"><path d="M 9.699219 19 L 364 19 L 364 350 L 9.699219 350 Z M 9.699219 19 " clip-rule="nonzero"/></clipPath></defs><path fill="#ffffff" d="M 128.589844 95.070312 L 127.59375 100.566406 C 125.652344 111.328125 116.308594 118.855469 105.765625 118.855469 C 91.785156 118.855469 81.277344 106.140625 83.746094 92.460938 L 84.734375 86.964844 L 109.546875 79.125 Z M 128.589844 95.070312 " fill-opacity="1" fill-rule="nonzero"/><path fill="#ffffff" d="M 345.207031 106.738281 C 352.777344 108.132812 357.800781 115.417969 356.425781 123 C 355.042969 130.632812 347.742188 135.597656 340.246094 134.199219 L 326.589844 131.6875 L 321.957031 117.089844 L 331.542969 104.238281 Z M 345.207031 106.738281 " fill-opacity="1" fill-rule="nonzero"/><path fill="#ffffff" d="M 216.296875 111.265625 C 198.234375 106.359375 181.335938 98.265625 166.054688 87.476562 L 134.050781 64.867188 L 128.589844 50.1875 L 139.503906 34.664062 L 189.78125 70.175781 C 199.230469 76.847656 209.949219 81.484375 221.257812 83.804688 L 228.515625 98.988281 Z M 216.296875 111.265625 " fill-opacity="1" fill-rule="nonzero"/><path fill="#ffffff" d="M 221.257812 83.804688 C 224.285156 84.429688 243.84375 87.996094 331.542969 104.238281 L 326.589844 131.6875 C 239.0625 115.488281 218.023438 111.617188 216.296875 111.265625 Z M 221.257812 83.804688 " fill-opacity="1" fill-rule="nonzero"/><path fill="#ffffff" d="M 210.917969 197.90625 C 210.945312 204.839844 209.496094 211.46875 206.648438 217.433594 C 175.234375 283.324219 182.925781 277.617188 177.652344 309.25 L 173.988281 331.257812 C 172.871094 337.898438 166.65625 342.8125 159.324219 342.8125 C 152.613281 342.8125 146.964844 338.714844 145.128906 333.121094 L 128.375 282.046875 C 123.773438 267.953125 103.796875 267.914062 99.152344 282.046875 L 82.40625 333.121094 C 80.511719 338.871094 74.75 342.8125 68.203125 342.8125 C 60.726562 342.8125 54.628906 337.753906 53.542969 331.257812 L 49.875 309.25 C 44.601562 277.617188 52.300781 283.324219 20.886719 217.433594 C 18.035156 211.46875 16.582031 204.839844 16.609375 197.90625 C 16.714844 170.746094 40.9375 148.539062 70.527344 148.503906 C 83.261719 148.480469 90.828125 152.300781 95.324219 153.722656 C 108.773438 158 123.15625 157.398438 135.839844 152.4375 C 171.273438 138.617188 210.785156 162.644531 210.917969 197.90625 Z M 210.917969 197.90625 " fill-opacity="1" fill-rule="nonzero"/><path fill="#ffffff" d="M 139.503906 34.664062 C 139.484375 34.757812 128.605469 94.988281 128.589844 95.070312 L 84.734375 86.964844 L 95.65625 26.558594 Z M 139.503906 34.664062 " fill-opacity="1" fill-rule="nonzero"/><g clip-path="url(#29e8c8cbb6)"><path fill="#000000" d="M 346.453125 99.9375 C 220.890625 76.75 222.574219 77.019531 222.644531 77.035156 C 212.195312 74.890625 202.480469 70.683594 193.765625 64.53125 C 140.378906 26.851562 142.875 28.253906 140.761719 27.871094 L 96.910156 19.765625 C 93.148438 19.070312 89.535156 21.566406 88.851562 25.332031 C 87.742188 31.484375 78.171875 84.445312 76.945312 91.230469 C 74.503906 104.742188 81.8125 117.832031 93.824219 123.210938 L 89.96875 144.519531 C 51.257812 132.378906 9.847656 159.035156 9.699219 197.882812 C 9.667969 205.898438 11.335938 213.480469 14.644531 220.402344 C 45.460938 285.042969 37.761719 278.601562 43.058594 310.382812 L 46.726562 332.402344 C 50.332031 353.855469 82.179688 355.921875 88.972656 335.273438 L 105.71875 284.203125 C 108.273438 276.433594 119.273438 276.425781 121.808594 284.195312 L 138.5625 335.277344 C 145.34375 355.902344 177.203125 353.890625 180.804688 332.390625 L 184.472656 310.382812 C 189.773438 278.582031 182.078125 285.027344 212.882812 220.410156 C 218.296875 209.085938 217.664062 199.472656 217.832031 197.878906 C 217.679688 157.542969 173.066406 130.484375 133.320312 146 C 123.683594 149.773438 113.285156 150.644531 103.269531 148.640625 L 107.417969 125.714844 C 120.664062 124.972656 131.976562 115.195312 134.398438 101.792969 C 134.273438 102.492188 138.917969 76.785156 138.917969 76.769531 L 162.070312 93.121094 C 178.21875 104.527344 195.855469 112.875 214.480469 117.929688 C 214.546875 117.949219 214.609375 117.957031 214.671875 117.972656 C 216.058594 118.308594 311.304688 135.875 338.988281 140.988281 C 350.285156 143.074219 361.171875 135.625 363.230469 124.226562 C 365.273438 112.921875 357.75 102.027344 346.453125 99.9375 Z M 321.019531 123.632812 C 278.128906 115.691406 231.71875 107.109375 224.316406 105.734375 C 225.792969 97.546875 225.335938 100.09375 226.816406 91.890625 C 234.714844 93.359375 280.277344 101.773438 323.519531 109.777344 Z M 101.222656 34.617188 L 131.480469 40.210938 C 127.117188 64.339844 127.386719 62.859375 127.246094 63.636719 C 127.246094 63.640625 127.246094 63.640625 127.242188 63.644531 L 123.019531 87.015625 L 92.761719 81.421875 Z M 138.351562 158.878906 C 169.332031 146.78125 203.890625 167.535156 204.007812 197.933594 C 204.03125 203.851562 202.820312 209.410156 200.40625 214.457031 C 168.371094 281.65625 176.097656 276.546875 170.835938 308.113281 L 167.171875 330.113281 C 165.96875 337.296875 154 337.972656 151.695312 330.96875 L 134.949219 279.898438 C 128.277344 259.488281 99.332031 259.386719 92.585938 279.890625 L 75.839844 330.960938 C 73.527344 337.996094 61.5625 337.269531 60.359375 330.121094 L 56.691406 308.113281 C 51.433594 276.550781 59.160156 281.65625 27.121094 214.449219 C 24.710938 209.410156 23.5 203.851562 23.519531 197.933594 C 23.636719 167.503906 58.234375 146.796875 89.179688 158.878906 C 104.40625 164.816406 121.953125 165.292969 138.351562 158.878906 Z M 114.429688 109.230469 C 103.734375 116.617188 89.171875 108.03125 90.363281 95.035156 L 120.511719 100.609375 C 119.570312 104.121094 117.441406 107.148438 114.429688 109.230469 Z M 141.632812 61.761719 L 144.378906 46.570312 L 185.792969 75.820312 C 194.226562 81.773438 203.449219 86.183594 213.296875 88.972656 L 210.867188 102.429688 C 196.460938 97.71875 182.757812 90.808594 170.046875 81.832031 Z M 349.625 121.769531 C 348.945312 125.550781 345.34375 128.113281 341.492188 127.398438 L 334.613281 126.136719 C 335.242188 122.660156 336.601562 115.132812 337.117188 112.28125 L 343.949219 113.535156 C 347.773438 114.238281 350.320312 117.9375 349.625 121.769531 Z M 349.625 121.769531 " fill-opacity="1" fill-rule="nonzero"/></g></svg>