<svg xmlns="http://www.w3.org/2000/svg" xmlns:xlink="http://www.w3.org/1999/xlink" width="500" zoomAndPan="magnify" viewBox="0 0 375 374.999991" height="500" preserveAspectRatio="xMidYMid meet" version="1.0"><defs><clipPath id="4d49d040cc"><path d="M 172 2.078125 L 212 2.078125 L 212 41 L 172 41 Z M 172 2.078125 " clip-rule="nonzero"/></clipPath></defs><path fill="#ffffff" d="M 227.015625 365.257812 C 213.398438 365.257812 208.71875 344.40625 208.71875 339.9375 L 208.71875 296.535156 C 208.71875 262.070312 175.527344 261.003906 175.527344 296.535156 L 175.527344 341.003906 C 174.039062 352.066406 165.738281 372.917969 148.507812 362.492188 C 134.890625 354.195312 117.867188 328.238281 114.25 302.917969 C 109.144531 266.75 118.292969 275.046875 99.570312 238.238281 C 62.765625 165.6875 116.804688 118.03125 192.121094 154.625 C 267.652344 118.03125 321.691406 165.902344 284.671875 238.238281 C 266.164062 274.835938 275.097656 266.75 270.203125 302.917969 C 266.585938 329.089844 244.671875 365.257812 227.015625 365.257812 Z M 227.015625 365.257812 " fill-opacity="1" fill-rule="evenodd"/><path fill="#ffffff" d="M 117.867188 208.878906 C 115.953125 208.878906 114.464844 207.175781 114.464844 205.261719 C 114.464844 185.050781 130.847656 168.667969 151.058594 168.667969 C 155.738281 168.667969 155.738281 175.6875 151.058594 175.6875 C 134.675781 175.6875 121.273438 188.878906 121.273438 205.261719 C 121.273438 207.175781 119.785156 208.878906 117.867188 208.878906 Z M 117.867188 208.878906 " fill-opacity="1" fill-rule="evenodd"/><path fill="#ffffff" d="M 266.375 208.878906 C 264.671875 208.878906 262.972656 207.175781 262.972656 205.261719 C 262.972656 188.878906 249.78125 175.6875 233.183594 175.6875 C 228.714844 175.6875 228.714844 168.667969 233.183594 168.667969 C 253.398438 168.667969 269.992188 185.050781 269.992188 205.261719 C 269.992188 207.175781 268.289062 208.878906 266.375 208.878906 Z M 266.375 208.878906 " fill-opacity="1" fill-rule="evenodd"/><path fill="#ffffff" d="M 114.675781 243.773438 C 81.488281 178.453125 121.910156 133.136719 185.527344 151.433594 C 113.613281 121.007812 63.828125 168.027344 99.570312 238.238281 C 118.292969 275.046875 109.144531 266.75 114.25 302.917969 C 117.867188 328.238281 134.890625 354.195312 148.507812 362.492188 C 152.761719 365.042969 156.378906 365.683594 159.570312 365.257812 C 146.804688 354.832031 132.550781 331.429688 129.359375 308.238281 C 124.25 272.070312 133.398438 280.367188 114.675781 243.773438 Z M 114.675781 243.773438 " fill-opacity="1" fill-rule="evenodd"/><path fill="#ffffff" d="M 152.121094 238.238281 C 146.164062 238.238281 147.867188 229.304688 147.867188 221.007812 C 147.867188 215.472656 156.378906 215.472656 156.378906 221.007812 C 156.378906 229.515625 158.082031 238.238281 152.121094 238.238281 Z M 152.121094 238.238281 " fill-opacity="1" fill-rule="evenodd"/><path fill="#ffffff" d="M 152.121094 271.855469 C 146.164062 271.855469 147.867188 262.917969 147.867188 254.621094 C 147.867188 249.089844 156.378906 249.089844 156.378906 254.621094 C 156.378906 263.132812 158.082031 271.855469 152.121094 271.855469 Z M 152.121094 271.855469 " fill-opacity="1" fill-rule="evenodd"/><path fill="#ffffff" d="M 175.3125 248.664062 C 167.230469 248.664062 158.292969 250.367188 158.292969 244.410156 C 158.292969 238.453125 167.230469 240.15625 175.3125 240.15625 C 181.058594 240.15625 181.058594 248.664062 175.3125 248.664062 Z M 175.3125 248.664062 " fill-opacity="1" fill-rule="evenodd"/><path fill="#ffffff" d="M 141.699219 248.664062 C 133.613281 248.664062 124.675781 250.367188 124.675781 244.410156 C 124.675781 238.453125 133.398438 240.15625 141.699219 240.15625 C 147.441406 240.15625 147.441406 248.664062 141.699219 248.664062 Z M 141.699219 248.664062 " fill-opacity="1" fill-rule="evenodd"/><path fill="#ffffff" d="M 221.695312 214.835938 C 215.738281 214.835938 217.441406 205.898438 217.441406 197.601562 C 217.441406 192.070312 225.949219 192.070312 225.949219 197.601562 C 225.949219 205.898438 227.652344 214.835938 221.695312 214.835938 Z M 221.695312 214.835938 " fill-opacity="1" fill-rule="evenodd"/><path fill="#ffffff" d="M 221.695312 248.453125 C 215.738281 248.453125 217.441406 239.515625 217.441406 231.21875 C 217.441406 225.6875 225.949219 225.6875 225.949219 231.21875 C 225.949219 239.515625 227.652344 248.453125 221.695312 248.453125 Z M 221.695312 248.453125 " fill-opacity="1" fill-rule="evenodd"/><path fill="#ffffff" d="M 244.886719 225.046875 C 236.800781 225.046875 227.867188 226.75 227.867188 220.792969 C 227.867188 214.835938 236.800781 216.539062 244.886719 216.539062 C 250.628906 216.539062 250.628906 225.046875 244.886719 225.046875 Z M 244.886719 225.046875 " fill-opacity="1" fill-rule="evenodd"/><path fill="#ffffff" d="M 211.269531 225.046875 C 203.183594 225.046875 194.25 226.75 194.25 220.792969 C 194.25 214.835938 203.183594 216.539062 211.269531 216.539062 C 217.015625 216.539062 217.015625 225.046875 211.269531 225.046875 Z M 211.269531 225.046875 " fill-opacity="1" fill-rule="evenodd"/><path fill="#ffffff" d="M 260.203125 113.988281 C 258.503906 113.988281 256.800781 112.925781 256.164062 111.222656 L 128.082031 111.222656 C 126.59375 115.050781 121.058594 114.625 119.996094 110.585938 L 107.65625 56.542969 C 106.59375 52.074219 111.910156 49.949219 114.464844 52.289062 L 116.59375 50.585938 C 115.953125 47.183594 119.570312 43.566406 123.1875 45.90625 L 148.507812 63.777344 L 178.929688 29.949219 C 181.910156 26.542969 186.804688 29.734375 186.378906 33.351562 C 189.355469 34.203125 193.398438 35.054688 198.078125 33.566406 C 197.441406 29.949219 202.335938 26.542969 205.527344 29.949219 L 235.738281 63.777344 L 261.054688 45.90625 C 264.671875 43.566406 268.289062 46.96875 267.863281 50.160156 L 269.992188 52.074219 C 272.757812 50.160156 277.863281 52.289062 276.800781 56.542969 L 264.460938 110.585938 C 263.820312 112.5 262.121094 113.988281 260.203125 113.988281 Z M 260.203125 113.988281 " fill-opacity="1" fill-rule="nonzero"/><g clip-path="url(#4d49d040cc)"><path fill="#ffffff" d="M 192.121094 40.800781 C 166.589844 40.800781 166.589844 2.078125 192.121094 2.078125 C 217.652344 2.078125 217.652344 40.800781 192.121094 40.800781 Z M 192.121094 40.800781 " fill-opacity="1" fill-rule="evenodd"/></g><path fill="#ffffff" d="M 275.949219 60.160156 C 250.417969 60.160156 250.417969 21.4375 275.949219 21.4375 C 301.480469 21.4375 301.480469 60.160156 275.949219 60.160156 Z M 275.949219 60.160156 " fill-opacity="1" fill-rule="evenodd"/><path fill="#ffffff" d="M 108.292969 60.160156 C 82.976562 60.160156 82.976562 21.4375 108.292969 21.4375 C 133.824219 21.4375 133.824219 60.160156 108.292969 60.160156 Z M 108.292969 60.160156 " fill-opacity="1" fill-rule="evenodd"/><path fill="#ffffff" d="M 265.523438 129.730469 L 118.933594 129.730469 C 102.976562 129.730469 102.976562 105.476562 118.933594 105.476562 L 265.523438 105.476562 C 281.480469 105.476562 281.480469 129.730469 265.523438 129.730469 Z M 265.523438 129.730469 " fill-opacity="1" fill-rule="evenodd"/><path fill="#ffffff" d="M 191.695312 101.433594 C 190.632812 101.433594 189.570312 101.011719 188.71875 100.160156 L 169.144531 80.585938 C 167.65625 79.09375 167.65625 76.328125 169.144531 74.628906 L 188.71875 55.054688 C 190.417969 53.351562 193.1875 53.351562 194.675781 55.054688 L 214.25 74.628906 C 215.949219 76.328125 215.949219 79.09375 214.25 80.585938 L 194.675781 100.160156 C 194.035156 101.011719 192.761719 101.433594 191.695312 101.433594 Z M 191.695312 101.433594 " fill-opacity="1" fill-rule="evenodd"/></svg>